Coordinates
version=1
nRows=40
nColumns=30
inDegrees=yes

Units are S.I. units (second, meters, Newtons, ...)
Angles are in degrees.

endheader
time	floatyaw	floatroll	floatpitch	floatx	floaty	floatz	pro_sup_l	deviation_l	flexion_l	cmc_flexion_l	cmc_abduction_l	mp_flexion_l	ip_flexion_l	2mcp_flexion_l	2mcp_abduction_l	2pm_flexion_l	2md_flexion_l	3mcp_flexion_l	3mcp_abduction_l	3pm_flexion_l	3md_flexion_l	4mcp_flexion_l	4mcp_abduction_l	4pm_flexion_l	4md_flexion_l	5mcp_flexion_l	5mcp_abduction_l	5pm_flexion_l	5md_flexion_l
-0.495000	-0.679314	-3.115271	87.889519	0.026855	-0.215614	0.038247	89.888927	8.259637	0.771204	15.360501	9.192585	-16.380140	-22.291112	23.917931	7.204607	30.961482	19.642800	11.312379	4.758666	36.942093	22.524352	0.771981	-3.679426	54.242450	28.337031	-5.126175	-7.690509	52.107056	27.785778
-0.485000	-0.679314	-3.115271	87.889519	0.030496	-0.214433	0.041382	89.964149	9.513212	1.289371	14.099884	9.708319	-16.165137	-21.276801	24.851401	7.199373	30.494019	19.260018	12.365526	4.779229	36.289954	22.555107	1.329515	-3.465359	54.239803	28.332581	-3.181378	-7.739132	50.064876	27.065587
-0.475000	-0.679314	-3.115271	87.889519	0.034333	-0.213168	0.044953	90.148558	10.720431	1.784215	12.951526	10.286985	-15.937103	-20.392343	25.782393	7.189590	30.043934	18.875543	13.449354	4.790268	35.549938	22.558947	2.004113	-3.253813	54.053520	28.269161	-1.552173	-7.836336	48.258017	26.417577
-0.465000	-0.679314	-3.115271	87.889519	0.038362	-0.211804	0.048919	90.470141	11.865116	2.262187	11.976206	10.877896	-15.711446	-19.665846	26.692529	7.177305	29.608057	18.518179	14.523912	4.797582	34.776292	22.538703	2.794104	-3.059864	53.647624	28.163840	-0.356070	-7.984653	46.820641	25.883261
-0.455000	-0.679314	-3.115271	87.889519	0.042600	-0.210346	0.053172	90.925767	12.957234	2.736246	11.206831	11.408941	-15.510257	-19.113421	27.569985	7.163378	29.204237	18.211650	15.550173	4.801017	34.053944	22.503176	3.648316	-2.891205	53.081169	28.058708	0.374409	-8.164665	45.827452	25.502476
-0.445000	-0.679314	-3.115271	87.889519	0.047070	-0.208823	0.057584	91.485951	14.014283	3.219980	10.630662	11.819258	-15.350632	-18.727313	28.413368	7.153439	28.856482	17.959445	16.505767	4.798291	33.464717	22.453476	4.498402	-2.751487	52.463142	27.995954	0.706021	-8.341369	45.267261	25.277674
-0.435000	-0.679314	-3.115271	87.889519	0.051784	-0.207274	0.062053	92.111861	15.044084	3.722267	10.190592	12.081465	-15.233610	-18.469014	29.228784	7.159222	28.577384	17.744844	17.393851	4.790187	33.051669	22.379699	5.291862	-2.642845	51.891438	27.997785	0.773716	-8.480263	45.055804	25.167398
-0.425000	-0.679314	-3.115271	87.889519	0.056727	-0.205751	0.066534	92.773708	16.037426	4.243836	9.809494	12.207574	-15.142354	-18.278738	30.022463	7.195474	28.361877	17.545940	18.238303	4.783211	32.804163	22.270630	6.006564	-2.566581	51.414295	28.061890	0.723935	-8.564272	45.075889	25.108352
-0.415000	-0.679314	-3.115271	87.889519	0.061858	-0.204314	0.071033	93.460858	16.972091	4.776826	9.424857	12.242099	-15.052226	-18.099682	30.794225	7.275723	28.195075	17.354675	19.068560	4.788377	32.670490	22.128463	6.643965	-2.522889	51.031318	28.172151	0.664124	-8.602292	45.218389	25.047093
-0.405000	-0.679314	-3.115271	87.889519	0.067122	-0.203038	0.075598	94.180967	17.823927	5.308882	9.013574	12.247688	-14.947139	-17.903385	31.534977	7.409623	28.066781	17.187905	19.903981	4.817543	32.587383	21.977440	7.212279	-2.510759	50.723045	28.315115	0.639674	-8.625593	45.405650	24.962321
-0.395000	-0.679314	-3.115271	87.889519	0.072463	-0.202000	0.080286	94.951416	18.577883	5.831824	8.593628	12.287709	-14.832244	-17.701087	32.228452	7.601966	27.982547	17.084603	20.746292	4.879542	32.508806	21.860110	7.714751	-2.528222	50.481168	28.490082	0.639877	-8.674964	45.595960	24.869912
-0.385000	-0.679314	-3.115271	87.889519	0.077840	-0.201258	0.085138	95.788271	19.233149	6.350897	8.204213	12.410823	-14.735152	-17.535339	32.855796	7.851459	27.965411	17.091314	21.582126	4.977410	32.421527	21.822742	8.152105	-2.572338	50.316551	28.706065	0.620988	-8.785060	45.778344	24.813122
-0.375000	-0.679314	-3.115271	87.889519	0.083224	-0.200829	0.090157	96.697293	19.800877	6.887845	7.878055	12.643164	-14.694465	-17.457933	33.400727	8.147884	28.048430	17.243567	22.391929	5.107066	32.344493	21.897606	8.537155	-2.638592	50.243801	28.968988	0.532454	-8.971992	45.965974	24.844578
-0.365000	-0.679314	-3.115271	87.889519	0.088598	-0.200679	0.095304	97.670308	20.297366	7.473865	7.621907	12.991928	-14.741081	-17.506197	33.852416	8.468670	28.262380	17.552257	23.159372	5.257547	32.316412	22.091483	8.910401	-2.720211	50.260799	29.270034	0.338225	-9.227791	46.189325	25.006266
-0.355000	-0.679314	-3.115271	87.889519	0.093945	-0.200735	0.100509	98.688547	20.737192	8.135519	7.413272	13.459250	-14.881341	-17.687445	34.204443	8.778379	28.624595	18.000680	23.876764	5.413020	32.378821	22.386131	9.344052	-2.808434	50.342652	29.584724	0.031418	-9.522761	46.485615	25.313108
-0.345000	-0.679314	-3.115271	87.889519	0.099250	-0.200920	0.105701	99.731168	21.129197	8.882496	7.210348	14.058592	-15.090195	-17.975184	34.451739	9.034819	29.133367	18.551948	24.545352	5.556546	32.561126	22.749743	9.928556	-2.894490	50.453684	29.883579	-0.357140	-9.814620	46.883221	25.745817
-0.335000	-0.679314	-3.115271	87.889519	0.104496	-0.201187	0.110836	100.783391	21.475761	9.705967	6.966142	14.821516	-15.317889	-18.315576	34.589946	9.202189	29.767960	19.161625	25.171905	5.674900	32.871138	23.152980	10.745113	-2.972764	50.565638	30.146976	-0.756420	-10.061523	47.385050	26.256632
-0.325000	-0.679314	-3.115271	87.889519	0.109666	-0.201537	0.115902	101.838135	21.774112	10.589004	6.639668	15.786534	-15.507096	-18.640734	34.618811	9.265958	30.491608	19.789814	25.763064	5.762726	33.291966	23.581670	11.835134	-3.043254	50.668289	30.375163	-1.058942	-10.234979	47.957849	26.785877
-0.315000	-0.679314	-3.115271	87.889519	0.114734	-0.202007	0.120900	102.890028	22.018664	11.521123	6.202961	16.974535	-15.612419	-18.885501	34.545583	9.240567	31.256319	20.409523	26.318137	5.823911	33.785212	24.040692	13.180897	-3.111231	50.767780	30.588423	-1.131876	-10.328477	48.533822	27.281649
-0.305000	-0.679314	-3.115271	87.889519	0.119658	-0.202649	0.125819	103.927692	22.204165	12.505293	5.645709	18.367444	-15.613400	-19.003723	34.382955	9.163933	32.010756	21.009893	26.822169	5.868971	34.300329	24.547796	14.708542	-3.183823	50.877422	30.817876	-0.838461	-10.358477	49.027199	27.713579
-0.295000	-0.679314	-3.115271	87.889519	0.124390	-0.203499	0.130619	104.932786	22.329378	13.551694	4.978020	19.906749	-15.515891	-18.978691	34.141277	9.080788	32.711420	21.593154	27.243600	5.909486	34.788669	25.120371	16.313864	-3.265627	51.008586	31.091437	-0.071221	-10.356855	49.362007	28.075246
-0.285000	-0.679314	-3.115271	87.889519	0.128876	-0.204574	0.135237	105.889342	22.400105	14.662673	4.229822	21.514836	-15.342586	-18.823273	33.820942	9.024027	33.334099	22.166067	27.540913	5.952615	35.218200	25.761520	17.898561	-3.356183	51.166422	31.421318	1.209712	-10.357775	49.500261	28.376343
-0.275000	-0.679314	-3.115271	87.889519	0.133081	-0.205871	0.139616	106.798561	22.430205	15.819194	3.445819	23.125757	-15.118632	-18.569996	33.411791	9.003837	33.880669	22.730828	27.678588	5.998708	35.583010	26.452849	19.398800	-3.450546	51.350728	31.799073	2.949700	-10.384839	49.457266	28.631455
-0.265000	-0.679314	-3.115271	87.889519	0.136995	-0.207377	0.143730	107.688552	22.440214	16.977145	2.677002	24.705765	-14.860149	-18.256704	32.901664	9.008729	34.377265	23.281833	27.646352	6.042914	35.902760	27.158395	20.793331	-3.541992	51.559901	32.200858	5.002041	-10.444167	49.296374	28.853594
-0.255000	-0.679314	-3.115271	87.889519	0.140631	-0.209073	0.147601	108.609601	22.453836	18.075663	1.971211	26.252094	-14.571045	-17.915219	32.290035	9.015534	34.863280	23.810131	27.471663	6.079143	36.212066	27.837888	22.091131	-3.624923	51.795686	32.600173	7.165679	-10.526077	49.106470	29.055577
-0.245000	-0.679314	-3.115271	87.889519	0.144014	-0.210934	0.151275	109.613626	22.492742	19.053569	1.365154	27.773778	-14.248260	-17.567376	31.599179	9.001642	35.375662	24.310711	27.217305	6.103705	36.545867	28.462158	23.310688	-3.696574	52.066547	32.980794	9.244993	-10.613586	48.973752	29.254789
-0.235000	-0.679314	-3.115271	87.889519	0.147159	-0.212931	0.154798	110.727247	22.571169	19.866649	0.879607	29.269176	-13.890841	-17.227607	30.876634	8.953711	35.936206	24.785643	26.963714	6.116749	36.929083	29.022875	24.466236	-3.757164	52.387475	33.342739	11.105768	-10.692120	48.959546	29.474076
-0.225000	-0.679314	-3.115271	87.889519	0.150070	-0.215030	0.158181	111.933890	22.693130	20.498339	0.518761	30.714268	-13.506877	-16.907731	30.188071	8.870830	36.547783	25.240436	26.784833	6.121338	37.374694	29.532821	25.568006	-3.808882	52.775613	33.699274	12.703987	-10.754608	49.090410	29.736516
-0.215000	-0.679314	-3.115271	87.889519	0.152734	-0.217196	0.161397	113.176283	22.854409	20.959609	0.273667	32.066698	-13.114770	-16.619687	29.605504	8.763432	37.199455	25.677154	26.730479	6.121318	37.887504	30.018147	26.630952	-3.854344	53.244277	34.069032	14.078929	-10.800097	49.360842	30.059093
-0.205000	-0.679314	-3.115271	87.889519	0.155138	-0.219392	0.164384	114.378601	23.048317	21.279287	0.128201	33.280866	-12.739147	-16.374765	29.197385	8.650135	37.875258	26.090501	26.823920	6.119375	38.467539	30.507501	27.680630	-3.895312	53.799459	34.469298	15.318648	-10.829002	49.745185	30.452090
-0.195000	-0.679314	-3.115271	87.889519	0.157272	-0.221586	0.167079	115.475926	23.270987	21.490413	0.064589	34.324790	-12.404404	-16.180736	29.023350	8.553809	38.561035	26.470982	27.072922	6.116159	39.110046	31.023904	28.749766	-3.932345	54.440677	34.913680	16.515951	-10.839842	50.213365	30.925591
-0.185000	-0.679314	-3.115271	87.889519	0.159143	-0.223755	0.169440	116.435667	23.522064	21.618775	0.065643	35.190325	-12.129225	-16.039390	29.131069	8.497077	39.247197	26.814436	27.483440	6.110539	39.804510	31.583319	29.868053	-3.965432	55.164403	35.413017	17.733462	-10.830105	50.744979	31.497308
-0.175000	-0.679314	-3.115271	87.889519	0.160763	-0.225891	0.171464	117.261973	23.800232	21.677034	0.112880	35.892217	-11.924233	-15.946416	29.550566	8.497310	39.928574	27.132546	28.064222	6.100556	40.536797	32.198928	31.051950	-3.994860	55.967173	35.976340	18.988277	-10.800055	51.338113	32.193764
-0.165000	-0.679314	-3.115271	87.889519	0.162154	-0.227993	0.173186	117.984368	24.097006	21.664575	0.182500	36.456508	-11.793273	-15.894142	30.284787	8.561898	40.602793	27.457043	28.818697	6.084563	41.295072	32.885332	32.299194	-4.021495	56.847284	36.609860	20.255845	-10.756048	52.011729	33.041195
-0.155000	-0.679314	-3.115271	87.889519	0.163337	-0.230057	0.174664	118.639213	24.393632	21.571075	0.242875	36.904125	-11.737247	-15.876063	31.301629	8.685614	41.267322	27.833180	29.731387	6.062296	42.075851	33.657314	33.589152	-4.046501	57.805696	37.314468	21.486162	-10.710704	52.801444	34.049847
-0.145000	-0.679314	-3.115271	87.889519	0.164329	-0.232058	0.175955	119.254095	24.664123	21.381483	0.256643	37.238599	-11.758180	-15.891135	32.535668	8.851941	41.915034	28.304407	30.760868	6.035725	42.885594	34.523226	34.888258	-4.071261	58.846359	38.083819	22.624531	-10.679641	53.748697	35.200379
-0.135000	-0.679314	-3.115271	87.889519	0.165145	-0.233948	0.177098	119.841237	24.883695	21.081426	0.187972	37.445047	-11.860941	-15.945779	33.902749	9.038571	42.529920	28.895511	31.846258	6.009290	43.735910	35.477372	36.158515	-4.097742	59.974614	38.904552	23.629953	-10.676259	54.884985	36.440384
-0.125000	-0.679314	-3.115271	87.889519	0.165797	-0.235668	0.178112	120.399359	25.038050	20.663578	0.012547	37.501514	-12.051119	-16.052468	35.320580	9.224745	43.086667	29.602414	32.923587	5.988998	44.634458	36.495379	37.365389	-4.128608	61.191984	39.758393	24.485276	-10.706694	56.215387	37.693485
-0.115000	-0.679314	-3.115271	87.889519	0.166305	-0.237157	0.178994	120.918669	25.127923	20.134967	-0.273899	37.397008	-12.329745	-16.225213	36.723239	9.396702	43.556869	30.393038	33.941286	5.980235	45.576197	37.534545	38.481452	-4.166355	62.487691	40.624822	25.196385	-10.767004	57.706601	38.877170
-0.105000	-0.679314	-3.115271	87.889519	0.166686	-0.238373	0.179732	121.384062	25.166076	19.522696	-0.651974	37.146316	-12.688037	-16.474028	38.063096	9.548603	43.919818	31.218000	34.866297	5.985082	46.539190	38.540440	39.485150	-4.211756	63.830811	41.483448	25.783148	-10.843893	59.283660	39.922559
